# xmcd
#
# Track frame offsets:
#	150
#	16072
#	32971
#	48291
#	70547
#	90684
#	110100
#	127252
#	146104
#	161664
#	176769
#	198334
#	215415
#	234102
#	249265
#	268248
#	288138
#	307450
#	325251
#	343094
#
# Disc length: 4799 seconds
#
# Revision: 1
# Processed by: cddbd v1.5.2PL0 Copyright (c) Steve Scherf et al.
# Submitted via: EasyCDDAExtractor 15.3.0.1
#
DISCID=3012bd14
DTITLE=Ana Gabriel - Mi Regalo, Mis Numero 1...
DYEAR=2015
DGENRE=Latin
TTITLE0=Quien Como Tu
TTITLE1=Simplemente Amigos
TTITLE2=Pecado Original
TTITLE3=No Te Hago Falta
TTITLE4=Luna
TTITLE5=Huelo A Soledad
TTITLE6=Tu Lo Decidiste
TTITLE7=Es Demasiado Tarde
TTITLE8=Que Manera De Perder
TTITLE9=Ahora
TTITLE10=Mi Talisman
TTITLE11=A Pesar De Todos
TTITLE12=Y Aqui Estoy
TTITLE13=Ay Amor
TTITLE14=Evidencias
TTITLE15=Ni Un Roce (Nem Um Toque)
TTITLE16=Cosas Del Amor (Duo Con Vikki Carr)
TTITLE17=Hice Bien Quererte (Lambada)
TTITLE18=Mar Y Arena
TTITLE19=Es El Amor Quien Llega
EXTD=
EXTT0=
EXTT1=
EXTT2=
EXTT3=
EXTT4=
EXTT5=
EXTT6=
EXTT7=
EXTT8=
EXTT9=
EXTT10=
EXTT11=
EXTT12=
EXTT13=
EXTT14=
EXTT15=
EXTT16=
EXTT17=
EXTT18=
EXTT19=
PLAYORDER=
